<?xml version="1.0" encoding="UTF-8"?>
<svg id="xiaoyi-container" xmlns="http://www.w3.org/2000/svg" viewBox="0 0 1024.2 1024.2">
  <defs>
    <style>
      .cls-1, .cls-2 {
        stroke: #2b2b28;
      }

      .cls-1, .cls-2, .cls-3 {
        fill: none;
        stroke-linecap: round;
        stroke-miterlimit: 10;
      }

      .cls-1, .cls-3 {
        stroke-width: 50px;
      }

      .cls-4 {
        fill: #f4e300;
      }

      .cls-2 {
        stroke-width: 40px;
      }

      .cls-3 {
        stroke: #f6635c;
      }
    </style>
  </defs>
  <g id="xiaoyi">
    <g id="face">
      <circle class="cls-4" cx="512.1" cy="512.1" r="512"/>
    </g>
    <g id="right-eye">
      <line class="cls-1" x1="137.02" y1="381.69" x2="387.85" y2="404.09"/>
      <line class="cls-1" x1="245.48" y1="612.44" x2="388.12" y2="404.91"/>
    </g>
    <g id="mouth">
      <path class="cls-1" d="m780.5,440.91c67.69,140.8,8.42,309.81-132.38,377.49-140.8,67.69-309.81,8.42-377.49-132.38"/>
      <line class="cls-1" x1="270.37" y1="685.49" x2="780.24" y2="440.38"/>
      <line class="cls-1" x1="647.59" y1="818.66" x2="524.78" y2="563.19"/>
      <line class="cls-1" x1="401.3" y1="622.55" x2="507.74" y2="843.95"/>
      <line class="cls-1" x1="642.93" y1="506.39" x2="749.37" y2="727.79"/>
    </g>
    <path id="jaw" class="cls-1" d="m914.16,516.29c6.89,187.32-118.35,359.95-307.58,405.97-130.3,31.69-261.21-3.87-356.2-84.45"/>
    <g id="left-eye">
      <line class="cls-1" x1="740.19" y1="382.71" x2="489.45" y2="359.36"/>
      <line class="cls-1" x1="632.61" y1="151.56" x2="489.18" y2="358.55"/>
    </g>
    <g id="right-elbow">
      <line class="cls-2" x1="186.49" y1="273.91" x2="315.26" y2="285.9"/>
    </g>
    <g id="left-elbow">
      <line class="cls-2" x1="444.1" y1="232.93" x2="519.9" y2="122.65"/>
    </g>
    <circle id="right-blusher" class="cls-3" cx="157.97" cy="725.97" r="5"/>
    <circle id="left-blusher" class="cls-3" cx="892.97" cy="392.97" r="5"/>
  </g>
</svg>